# xmcd
#
# Track frame offsets:
#	150
#	16084
#	32317
#	44120
#	64862
#	81377
#	93842
#	111867
#	125785
#	140715
#	158212
#	173532
#	186095
#	201885
#	218490
#	247227
#
# Disc length: 3308 seconds
#
# Revision: 1
# Processed by: cddbd v1.5.1PL0 Copyright (c) Steve Scherf et al.
# Submitted via: audiograbber 1.82.02
#
DISCID=e10cea10
DTITLE=Various Artist - Country Hits - Vol. 2 - SC8102
DYEAR=1994
DGENRE=Karaoke
TTITLE0=Diffie, Joe - Prop Me Up Beside The Jukebox
TTITLE1=Cyrus, Billy Ray - Achy Breaky Heart
TTITLE2=Jones, George - High Tech Redneck
TTITLE3=Montgomery, John Michael - I Swear
TTITLE4=Tucker, Tanya - Soon
TTITLE5=McBride, Martina - My Baby Loves Me
TTITLE6=Price, Ray - For The Good Times
TTITLE7=Morgan, Lorrie - Except For Monday
TTITLE8=Tritt, Travis - Country Club
TTITLE9=Alabama - T L C A S A P
TTITLE10=Carpenter, Mary Chapin - I Feel Lucky
TTITLE11=Cline, Patsy - Sweet Dreams
TTITLE12=McBride, Martina and The Ride - Sacred Ground
TTITLE13=Travis, Randy - Forever And Ever, Amen
TTITLE14=Jackson, Alan - Here In The Real World
TTITLE15=Data Track - Data Track
EXTD=
EXTT0=
EXTT1=
EXTT2=
EXTT3=
EXTT4=
EXTT5=
EXTT6=
EXTT7=
EXTT8=
EXTT9=
EXTT10=
EXTT11=
EXTT12=
EXTT13=
EXTT14=
EXTT15=
PLAYORDER=
